<?xml version="1.0" standalone="no"?>
<!DOCTYPE svg PUBLIC "-//W3C//DTD SVG 20010904//EN"
 "http://www.w3.org/TR/2001/REC-SVG-20010904/DTD/svg10.dtd">
<svg version="1.0" xmlns="http://www.w3.org/2000/svg"
 width="764.000000pt" height="764.000000pt" viewBox="0 0 764.000000 764.000000"
 preserveAspectRatio="xMidYMid meet">
<metadata>
Created by potrace 1.14, written by Peter Selinger 2001-2017
</metadata>
<g transform="translate(0.000000,764.000000) scale(0.100000,-0.100000)"
fill="#000000" stroke="none">
<path d="M2335 6390 c-34 -16 -73 -59 -73 -80 -1 -3 -6 -18 -12 -34 -6 -16
-13 -47 -15 -70 -2 -22 -7 -51 -9 -62 -2 -12 -7 -37 -10 -55 -3 -19 -8 -45
-10 -59 -3 -14 -7 -47 -11 -74 -3 -27 -8 -52 -9 -55 -2 -3 -7 -26 -10 -51 -3
-25 -8 -56 -11 -70 -3 -14 -8 -41 -11 -60 -3 -19 -14 -84 -24 -145 -10 -60
-21 -126 -24 -145 -9 -56 -15 -91 -26 -150 -6 -30 -12 -68 -14 -85 -3 -16 -5
-30 -6 -30 -1 0 -3 -13 -5 -28 -4 -31 -32 -198 -40 -237 -3 -14 -7 -43 -9 -65
-3 -22 -9 -60 -15 -85 -5 -25 -12 -65 -16 -90 -3 -25 -9 -58 -12 -75 -3 -16
-7 -39 -8 -50 -2 -11 -6 -35 -9 -52 -3 -18 -9 -48 -12 -65 -3 -18 -7 -42 -9
-53 -1 -11 -8 -51 -15 -90 -6 -38 -13 -79 -15 -90 -1 -11 -8 -51 -15 -90 -7
-38 -14 -81 -15 -95 -2 -14 -6 -34 -8 -45 -3 -11 -8 -40 -11 -65 -3 -25 -9
-58 -12 -75 -3 -16 -7 -37 -8 -45 -15 -98 -27 -123 -65 -133 -38 -10 -66 11
-85 63 -23 65 -65 127 -90 135 -12 4 -28 9 -36 12 -8 3 -265 6 -570 6 -433 1
-567 -2 -610 -12 -68 -16 -156 -62 -209 -108 -36 -31 -121 -148 -128 -177 -1
-6 -9 -35 -17 -63 -54 -192 35 -411 211 -523 97 -62 156 -72 434 -74 293 -1
265 12 317 -144 17 -53 111 -335 208 -627 96 -291 191 -563 211 -603 59 -121
170 -221 293 -265 78 -27 103 -31 205 -32 116 0 150 6 227 42 169 80 300 261
323 448 4 28 8 57 10 65 2 8 7 30 10 48 3 17 7 46 10 62 3 17 7 45 10 63 3 17
8 46 12 62 3 17 8 44 9 60 2 17 8 55 14 85 5 30 12 69 15 85 2 17 7 41 9 55 6
32 17 99 21 125 2 11 8 48 15 83 6 35 13 75 15 90 5 35 24 149 31 182 6 36 14
81 19 115 2 17 6 40 9 51 2 12 7 39 11 60 10 69 61 364 71 414 3 14 7 39 9 55
5 35 9 61 29 175 8 47 17 101 20 120 3 19 8 45 10 56 2 12 7 39 10 60 7 41 16
96 23 129 2 11 6 36 9 55 3 19 7 46 10 60 2 14 7 41 9 60 3 19 8 46 11 60 3
13 7 40 10 60 2 19 6 42 9 50 5 15 16 87 20 125 1 11 4 29 8 40 3 11 8 42 11
68 3 27 8 52 10 55 2 4 6 30 10 59 3 28 8 57 10 65 3 7 8 31 11 53 3 22 15 94
26 160 12 66 23 134 25 150 2 17 8 55 14 85 5 30 12 70 15 89 11 66 45 109
102 129 21 7 643 10 2039 11 1105 0 2027 3 2049 6 75 12 193 73 247 127 35 35
89 111 104 147 41 93 53 210 32 304 -18 83 -84 197 -143 249 -48 41 -68 54
-121 80 -34 16 -72 32 -85 36 -13 4 -1122 8 -2464 9 -2421 3 -2440 3 -2480
-17z"/>
<path d="M559 6198 c-52 -23 -496 -460 -535 -526 -28 -47 -28 -93 0 -146 8
-16 76 -91 152 -168 l137 -139 -142 -139 c-155 -152 -177 -186 -166 -256 7
-52 25 -72 304 -351 221 -220 260 -248 329 -237 20 3 39 10 40 15 2 5 9 9 17
9 7 0 76 64 154 142 l141 143 122 -126 c68 -69 139 -138 159 -152 43 -33 100
-40 148 -20 39 17 476 444 524 513 24 35 31 55 30 86 -2 71 -19 93 -215 280
l-95 91 137 140 c76 77 146 155 155 173 22 43 23 96 1 138 -19 37 -445 467
-507 512 -48 35 -101 39 -155 14 -28 -14 -273 -250 -295 -285 -5 -9 -49 30
-136 120 -176 181 -221 207 -304 169z"/>
<path d="M3879 4949 c-76 -4 -103 -10 -133 -28 -70 -44 -70 -45 -71 -431 -1
-190 3 -361 8 -381 10 -42 47 -86 85 -101 15 -6 69 -12 120 -13 51 -2 96 -6
100 -10 4 -4 7 -480 8 -1058 1 -579 4 -1070 8 -1092 23 -141 113 -266 247
-342 109 -62 251 -74 376 -30 154 54 255 156 305 307 21 65 22 71 24 1127 1
584 4 1069 7 1076 4 12 34 15 144 15 l139 0 0 -696 c1 -384 2 -731 4 -772 10
-246 103 -498 245 -660 86 -99 153 -156 270 -232 196 -127 353 -145 528 -61
101 49 207 181 248 308 12 37 16 200 6 235 -17 62 -57 145 -84 176 -14 16 -28
34 -31 39 -11 17 -109 95 -119 95 -16 0 -71 56 -88 91 -17 31 -18 86 -18 752
0 395 2 720 5 722 2 3 54 6 115 8 134 5 177 22 208 83 18 36 19 62 20 389 1
201 -3 355 -8 363 -5 6 -7 12 -3 12 10 0 -20 53 -40 71 -46 40 -51 40 -1311
42 -670 1 -1261 -1 -1314 -4z"/>
</g>
</svg>
